# xmcd
#
# Track frame offsets: 
#        150
#        26711
#        37792
#        52631
#        77567
#        101701
#        114282
#        133597
#        155350
#        184162
#        210909
#        224466
#
# Disc length: 3354 seconds
#
# Revision: 1
# Processed by: cddbd v1.5.2PL0 Copyright (c) Steve Scherf et al.
# Submitted via: ExactAudioCopy v0.99pb5
#
DISCID=900d180c
DTITLE=Various Artist - The Best Of R&B
DYEAR=2004
DGENRE=R&B
TTITLE0=DeBarge - All This Love
TTITLE1=The Temptations - (I Know) I'm Losing You
TTITLE2=The Gap Band - Outstanding
TTITLE3=Klymaxx - I Miss You
TTITLE4=Dazz Band - Joystick
TTITLE5=James Brown - I Got You (I Feel Good)
TTITLE6=Blackstreet - Booti Call
TTITLE7=Guy - I Like
TTITLE8=Teena Marie - Square Biz
TTITLE9=Rick James - Cold Blooded
TTITLE10=The Jackson 5 - Never Can Say Goodbye
TTITLE11=Pointer Sisters - Yes We Can Can
EXTD=
EXTT0=
EXTT1=
EXTT2=
EXTT3=
EXTT4=
EXTT5=
EXTT6=
EXTT7=
EXTT8=
EXTT9=
EXTT10=
EXTT11=
PLAYORDER=
